<svg preserveAspectRatio="none" width="100%" height="100%" overflow="visible" style="display: block;" viewBox="0 0 171.217 170.268" fill="none" xmlns="http://www.w3.org/2000/svg">
<path id="Ellipse 28 (Stroke)" opacity="0.8" d="M156.054 0.326279C160.369 0.0572154 164.667 -0.0445355 169.001 0.0176847C169.589 0.0264431 170.152 0.271656 170.568 0.693466C170.984 1.11557 171.217 1.67972 171.217 2.26768C171.217 2.85564 170.984 3.4198 170.568 3.8419C170.152 4.26371 169.589 4.50893 169.001 4.51768C164.782 4.58046 160.608 4.80258 156.428 5.18663C85.3825 10.6547 23.5092 68.7988 13.818 137.942C13.0973 142.594 12.5884 147.277 12.2927 151.971C12.0346 156.065 11.9381 160.168 12.0007 164.268C12.0244 165.859 11.4131 167.385 10.2878 168.51C9.16295 169.635 7.61566 170.268 6.00066 170.268C4.38566 170.268 2.83838 169.635 1.71355 168.51C0.588213 167.385 -0.023034 165.859 0.000664157 164.268C0.0631365 159.858 0.297242 155.452 0.703789 151.063C1.16974 146.032 1.86272 141.023 2.78191 136.06C15.4667 62.1513 82.7948 3.74788 156.054 0.326279Z" fill="url(#paint0_linear_0_4)"/>
<defs>
<linearGradient id="paint0_linear_0_4" x1="12.4561" y1="172.287" x2="168.458" y2="-4.56672" gradientUnits="userSpaceOnUse">
<stop stop-color="white"/>
<stop offset="1" stop-color="#D9D9D9" stop-opacity="0"/>
</linearGradient>
</defs>
</svg>
