<svg preserveAspectRatio="none" width="100%" height="100%" overflow="visible" style="display: block;" viewBox="0 0 202.284 82.2655" fill="none" xmlns="http://www.w3.org/2000/svg">
<path id="Ellipse 29 (Stroke)" opacity="0.2" d="M0.709699 0.222151C1.04429 0.0154921 1.44727 -0.0501469 1.83275 0.0385572C2.21821 0.127469 2.55485 0.363373 2.76536 0.695784C4.757 3.84106 6.85528 6.91402 9.05638 9.91063C39.1107 51.334 89.5568 76.5531 140.207 75.5727C149.385 75.4695 158.542 74.5876 167.546 72.9243C173.957 71.7405 180.29 70.1613 186.497 68.1987C189.992 67.0938 193.447 65.8675 196.853 64.5229C197.84 64.1336 198.938 64.1548 199.906 64.5884C200.874 65.0215 201.634 65.8315 202.016 66.8335C202.399 67.8357 202.372 68.9465 201.938 69.9145C201.505 70.883 200.701 71.6305 199.706 71.9975C196.096 73.3306 192.44 74.5372 188.749 75.6147C182.193 77.5286 175.523 79.0344 168.791 80.1235C159.337 81.6539 149.76 82.36 140.207 82.2554C87.424 82.0954 36.0973 54.7141 6.41575 11.8052C4.23879 8.69924 2.16974 5.51993 0.212628 2.27196C0.00973426 1.93493 -0.0503559 1.52844 0.0427064 1.14403C0.135993 0.759676 0.375137 0.428792 0.709699 0.222151Z" fill="url(#paint0_linear_0_4)"/>
<defs>
<linearGradient id="paint0_linear_0_4" x1="193.707" y1="63.8592" x2="50.6639" y2="132.411" gradientUnits="userSpaceOnUse">
<stop offset="0.371515" stop-color="white"/>
<stop offset="1" stop-color="#D9D9D9" stop-opacity="0"/>
</linearGradient>
</defs>
</svg>
